<?xml version="1.0" encoding="utf-8"?>
<svg xmlns="http://www.w3.org/2000/svg">
<symbol id="chevron-left-icon" viewBox="0 0 24 24">
<g>
<g>
<path fill-rule="evenodd" clip-rule="evenodd" d="M16.7691 1.78101C16.9172 1.93459 17 2.13964 17 2.35301C17 2.56637 16.9172 2.77142 16.7691 2.92501L7.89912 12.045L16.7691 21.164C16.917 21.3177 16.9996 21.5227 16.9996 21.736C16.9996 21.9493 16.917 22.1543 16.7691 22.308C16.6972 22.3829 16.6108 22.4425 16.5153 22.4832C16.4198 22.5239 16.317 22.5449 16.2131 22.5449C16.1093 22.5449 16.0065 22.5239 15.9109 22.4832C15.8154 22.4425 15.7291 22.3829 15.6571 22.308L6.23112 12.617C6.08301 12.4634 6.00024 12.2584 6.00024 12.045C6.00024 11.8316 6.08301 11.6266 6.23112 11.473L15.6571 1.78101C15.729 1.70599 15.8153 1.64629 15.9109 1.60551C16.0064 1.56473 16.1092 1.5437 16.2131 1.5437C16.317 1.5437 16.4198 1.56473 16.5154 1.60551C16.6109 1.64629 16.6972 1.70599 16.7691 1.78101V1.78101Z"/>
</g>
</g>

</symbol>
<symbol id="chevron-right-icon" viewBox="0 0 24 24">
<g clip-path="url(#clip0)">
<path fill-rule="evenodd" clip-rule="evenodd" d="M7.23088 22.219C7.08276 22.0654 7 21.8604 7 21.647C7 21.4336 7.08276 21.2286 7.23088 21.075L16.1009 11.955L7.23088 2.83599C7.083 2.68229 7.00039 2.47729 7.00039 2.26399C7.00039 2.0507 7.083 1.8457 7.23088 1.69199C7.30283 1.6171 7.38916 1.55752 7.4847 1.51682C7.58025 1.47612 7.68303 1.45513 7.78688 1.45513C7.89073 1.45513 7.99351 1.47612 8.08905 1.51682C8.1846 1.55752 8.27093 1.6171 8.34288 1.69199L17.7689 11.383C17.917 11.5366 17.9998 11.7416 17.9998 11.955C17.9998 12.1684 17.917 12.3734 17.7689 12.527L8.34288 22.219C8.27101 22.294 8.18469 22.3537 8.08914 22.3945C7.99359 22.4353 7.89077 22.4563 7.78688 22.4563C7.68299 22.4563 7.58017 22.4353 7.48462 22.3945C7.38906 22.3537 7.30275 22.294 7.23088 22.219V22.219Z"/>
</g>
<defs>
<clipPath id="clip0">
<rect/>
</clipPath>
</defs>

</symbol>
<symbol id="chevron-up-icon" viewBox="0 0 24 24">
<g clip-path="url(#clip0)">
<path fill-rule="evenodd" clip-rule="evenodd" d="M22.219 16.769C22.0654 16.9171 21.8604 16.9999 21.647 16.9999C21.4336 16.9999 21.2286 16.9171 21.075 16.769L11.955 7.899L2.83599 16.769C2.68229 16.9169 2.47729 16.9995 2.26399 16.9995C2.0507 16.9995 1.8457 16.9169 1.69199 16.769C1.6171 16.6971 1.55752 16.6107 1.51682 16.5152C1.47612 16.4196 1.45513 16.3169 1.45513 16.213C1.45513 16.1091 1.47612 16.0064 1.51682 15.9108C1.55752 15.8153 1.6171 15.7289 1.69199 15.657L11.383 6.231C11.5366 6.08288 11.7416 6.00012 11.955 6.00012C12.1684 6.00012 12.3734 6.08288 12.527 6.231L22.219 15.657C22.294 15.7289 22.3537 15.8152 22.3945 15.9107C22.4353 16.0063 22.4563 16.1091 22.4563 16.213C22.4563 16.3169 22.4353 16.4197 22.3945 16.5153C22.3537 16.6108 22.294 16.6971 22.219 16.769V16.769Z"/>
</g>
<defs>
<clipPath id="clip0">
<rect/>
</clipPath>
</defs>

</symbol>
<symbol id="facebook-icon" viewBox="0 0 13 22">
<path d="M10.006 3.89903H12.006V0.519026C11.038 0.418304 10.0653 0.368568 9.09202 0.370026C6.20102 0.370026 4.22402 2.13503 4.22402 5.37003V8.15103H0.960022V11.935H4.22402V21.63H8.13602V11.936H11.389L11.878 8.15203H8.13602V5.73803C8.13602 4.62203 8.43302 3.89903 10.006 3.89903Z"/>

</symbol>
<symbol id="heart-icon-border" viewBox="0 0 22 21">
<path d="M10.3523 2.10805L10.7107 2.47645L11.0691 2.10805C13.7727 -0.671077 18.5733 0.345066 20.2939 3.70481C21.1377 5.35238 21.2548 7.61547 19.8753 10.337C18.5143 13.0219 15.6977 16.143 10.7107 19.4829C5.72421 16.1435 2.90779 13.0227 1.54692 10.3379C0.167487 7.61641 0.284569 5.35324 1.12824 3.70553C2.84867 0.345499 7.64876 -0.67102 10.3523 2.10805Z" stroke="#5C6673"/>

</symbol>
<symbol id="heart-icon" viewBox="0 0 40 24">
<path fill-rule="evenodd" clip-rule="evenodd" d="M12.455 3.64398C18.397 -2.46402 33.255 8.22398 12.455 21.968C-8.34298 8.22598 6.51302 -2.46402 12.455 3.64398Z"/>
<path d="M38.016 15.336C38.656 15.336 38.976 15.608 38.976 16.152C38.976 16.7173 38.656 17 38.016 17H32.608C31.9573 17 31.632 16.7173 31.632 16.152C31.632 15.608 31.9573 15.336 32.608 15.336H34.272V8.04L32.736 8.984C32.5867 9.06933 32.4533 9.112 32.336 9.112C32.112 9.112 31.92 9.016 31.76 8.824C31.6107 8.632 31.536 8.41867 31.536 8.184C31.536 7.87467 31.6747 7.63467 31.952 7.464L34.432 5.928C34.752 5.736 35.056 5.64 35.344 5.64C35.6427 5.64 35.8827 5.73067 36.064 5.912C36.2453 6.09333 36.336 6.344 36.336 6.664V15.336H38.016Z"/>

</symbol>
<symbol id="heart" viewBox="0 0 23 21">
<path fill-rule="evenodd" clip-rule="evenodd" d="M11.455 2.64398C17.397 -3.46402 32.255 7.22398 11.455 20.968C-9.34298 7.22598 5.51302 -3.46402 11.455 2.64398Z"/>

</symbol>
<symbol id="instagram-icon" viewBox="0 0 22 22">
<path d="M16.839 4.06704C16.5819 4.06704 16.3305 4.14329 16.1167 4.28613C15.903 4.42898 15.7363 4.63201 15.6379 4.86956C15.5395 5.1071 15.5138 5.36849 15.564 5.62066C15.6141 5.87284 15.7379 6.10448 15.9197 6.28628C16.1016 6.46809 16.3332 6.59191 16.5854 6.64207C16.8375 6.69223 17.0989 6.66648 17.3365 6.56809C17.574 6.46969 17.777 6.30307 17.9199 6.08929C18.0627 5.8755 18.139 5.62416 18.139 5.36704C18.139 5.02226 18.002 4.6916 17.7582 4.44781C17.5144 4.20401 17.1838 4.06704 16.839 4.06704V4.06704ZM21.82 6.68705C21.7983 5.78861 21.6294 4.89981 21.32 4.05605C21.0446 3.33416 20.6161 2.68051 20.064 2.14004C19.5279 1.58518 18.8728 1.15944 18.148 0.895045C17.3064 0.576786 16.4166 0.404643 15.517 0.386045C14.37 0.321045 14.002 0.321045 11.057 0.321045C8.11198 0.321045 7.74398 0.321045 6.59598 0.386045C5.69639 0.404643 4.80659 0.576786 3.96498 0.895045C3.24153 1.1621 2.58691 1.58747 2.04898 2.14004C1.49411 2.67608 1.06838 3.33126 0.80398 4.05605C0.485721 4.89766 0.313579 5.78746 0.294981 6.68705C0.229981 7.83505 0.22998 8.20304 0.22998 11.148C0.22998 14.093 0.229981 14.461 0.294981 15.609C0.313579 16.5086 0.485721 17.3984 0.80398 18.24C1.06838 18.9648 1.49411 19.62 2.04898 20.156C2.58691 20.7086 3.24153 21.134 3.96498 21.401C4.80659 21.7193 5.69639 21.8914 6.59598 21.91C7.74398 21.975 8.11198 21.975 11.057 21.975C14.002 21.975 14.37 21.975 15.518 21.91C16.4176 21.8914 17.3074 21.7193 18.149 21.401C18.8738 21.1366 19.5289 20.7109 20.065 20.156C20.6196 19.6176 21.0484 18.9634 21.321 18.24C21.6304 17.3963 21.7993 16.5075 21.821 15.609C21.821 14.461 21.886 14.093 21.886 11.148C21.886 8.20304 21.885 7.83505 21.82 6.68705V6.68705ZM19.871 15.479C19.8632 16.1664 19.7387 16.8474 19.503 17.493C19.3301 17.9642 19.0525 18.3899 18.691 18.738C18.3398 19.0959 17.915 19.3729 17.446 19.55C16.7999 19.787 16.1181 19.9125 15.43 19.921C14.347 19.975 13.947 19.986 11.099 19.986C8.25098 19.986 7.85098 19.986 6.76798 19.921C6.05449 19.9344 5.34406 19.8244 4.66798 19.596C4.21951 19.4099 3.81411 19.1335 3.47698 18.784C3.11806 18.4361 2.84429 18.0101 2.67698 17.539C2.41273 16.8842 2.26614 16.1878 2.24398 15.482C2.24398 14.399 2.17898 13.999 2.17898 11.151C2.17898 8.30304 2.17898 7.90304 2.24398 6.82004C2.2489 6.11748 2.37719 5.42123 2.62298 4.76304C2.81348 4.30607 3.10593 3.89869 3.47798 3.57204C3.80695 3.19984 4.21349 2.90424 4.66898 2.70605C5.32998 2.46641 6.02691 2.34096 6.72998 2.33504C7.81298 2.33504 8.21298 2.27004 11.061 2.27004C13.909 2.27004 14.309 2.27004 15.392 2.33504C16.0793 2.34287 16.7603 2.4673 17.406 2.70304C17.8978 2.88565 18.3393 3.18247 18.694 3.56905C19.0488 3.90164 19.326 4.30826 19.506 4.76005C19.746 5.42075 19.8695 6.1181 19.871 6.82104C19.925 7.90404 19.936 8.30405 19.936 11.152C19.936 14 19.925 14.396 19.871 15.479V15.479ZM11.057 5.59404C9.77505 5.59903 8.53447 6.04811 7.54639 6.86485C6.55831 7.68159 5.8838 8.8155 5.63768 10.0736C5.39156 11.3317 5.58903 12.6362 6.19648 13.7651C6.80394 14.8939 7.78383 15.7774 8.96937 16.2651C10.1549 16.7528 11.4728 16.8146 12.6988 16.44C13.9248 16.0653 14.983 15.2774 15.6934 14.2103C16.4038 13.1432 16.7225 11.8629 16.5951 10.5873C16.4678 9.31169 15.9023 8.11964 14.995 7.21404C14.4774 6.69824 13.8632 6.28964 13.1874 6.01165C12.5116 5.73366 11.7877 5.59175 11.057 5.59404V5.59404ZM11.057 14.754C10.344 14.754 9.64699 14.5426 9.05415 14.1465C8.46131 13.7504 7.99925 13.1873 7.72639 12.5286C7.45354 11.8699 7.38215 11.145 7.52125 10.4457C7.66035 9.74644 8.00369 9.10409 8.50786 8.59993C9.01203 8.09576 9.65438 7.75241 10.3537 7.61331C11.053 7.47421 11.7778 7.54561 12.4366 7.81846C13.0953 8.09131 13.6583 8.55338 14.0544 9.14621C14.4506 9.73905 14.662 10.436 14.662 11.149C14.662 12.1052 14.2822 13.0221 13.6061 13.6982C12.93 14.3742 12.0131 14.754 11.057 14.754V14.754Z"/>

</symbol>
<symbol id="logo" viewBox="0 0 46 48">
<g clip-path="url(#clip0)">
<path d="M35.276 16.447L27.57 29.784L17.659 12.526H37.544L42.775 3.41901H12.426L10.462 0H0L13.785 24L27.57 48L41.355 24L45.738 16.448L35.276 16.447Z"/>
</g>
<defs>
<clipPath id="clip0">
<rect/>
</clipPath>
</defs>

</symbol>
<symbol id="search-icon" viewBox="0 0 19 19">
<path fill-rule="evenodd" clip-rule="evenodd" d="M12.361 12.361C12.4709 12.251 12.6014 12.1638 12.745 12.1042C12.8886 12.0447 13.0426 12.014 13.198 12.014C13.3535 12.014 13.5074 12.0447 13.6511 12.1042C13.7947 12.1638 13.9252 12.251 14.035 12.361L18.591 16.917C18.707 17.0255 18.8 17.1562 18.8645 17.3013C18.9289 17.4464 18.9636 17.603 18.9662 17.7618C18.9689 17.9206 18.9397 18.0783 18.8802 18.2255C18.8207 18.3728 18.7321 18.5065 18.6199 18.6189C18.5076 18.7312 18.3739 18.8198 18.2267 18.8794C18.0795 18.939 17.9218 18.9683 17.763 18.9657C17.6043 18.9631 17.4476 18.9286 17.3025 18.8643C17.1573 18.7999 17.0265 18.707 16.918 18.591L12.361 14.031C12.251 13.9212 12.1638 13.7907 12.1042 13.6471C12.0447 13.5034 12.014 13.3495 12.014 13.194C12.014 13.0386 12.0447 12.8846 12.1042 12.741C12.1638 12.5974 12.251 12.4669 12.361 12.357V12.361Z"/>
<path fill-rule="evenodd" clip-rule="evenodd" d="M7.692 14.2C8.97912 14.1998 10.2373 13.8179 11.3074 13.1027C12.3775 12.3875 13.2115 11.371 13.7039 10.1818C14.1963 8.99261 14.3251 7.6841 14.0738 6.42174C13.8226 5.15938 13.2027 3.99986 12.2925 3.0898C11.3823 2.17974 10.2227 1.56001 8.96028 1.30898C7.69788 1.05794 6.38939 1.18688 5.20027 1.67949C4.01115 2.17209 2.99479 3.00624 2.27973 4.07645C1.56467 5.14667 1.183 6.40488 1.183 7.692C1.183 8.54673 1.35137 9.39308 1.67849 10.1827C2.00561 10.9724 2.48508 11.6899 3.08951 12.2942C3.69394 12.8985 4.41149 13.3779 5.20119 13.7049C5.99089 14.0319 6.83728 14.2001 7.692 14.2V14.2ZM15.384 7.692C15.384 9.21333 14.9329 10.7005 14.0877 11.9654C13.2425 13.2304 12.0411 14.2163 10.6356 14.7985C9.23008 15.3807 7.68347 15.533 6.19137 15.2362C4.69927 14.9394 3.32868 14.2068 2.25294 13.1311C1.17719 12.0553 0.444601 10.6847 0.147803 9.19263C-0.148994 7.70053 0.00333285 6.15393 0.585522 4.7484C1.16771 3.34287 2.15361 2.14154 3.41856 1.29634C4.6835 0.451128 6.17067 0 7.692 0C9.73205 0 11.6885 0.810405 13.1311 2.25293C14.5736 3.69546 15.384 5.65195 15.384 7.692V7.692Z"/>

</symbol>
<symbol id="shopping-cart-icon" viewBox="0 0 39 24">
<path d="M8.83202 15.667C8.10742 15.6678 7.41274 15.956 6.90037 16.4684C6.38801 16.9807 6.09982 17.6754 6.09903 18.4C6.09735 18.7589 6.16723 19.1145 6.3046 19.446C6.44196 19.7776 6.64403 20.0784 6.89902 20.331C7.21675 20.6487 7.60792 20.8831 8.03789 21.0134C8.46785 21.1438 8.92333 21.1661 9.36398 21.0784C9.80463 20.9907 10.2169 20.7957 10.5641 20.5106C10.9114 20.2255 11.183 19.8592 11.3549 19.4441C11.5267 19.0289 11.5936 18.5778 11.5495 18.1307C11.5053 17.6836 11.3516 17.2542 11.1019 16.8807C10.8522 16.5072 10.5143 16.201 10.118 15.9893C9.72171 15.7776 9.27931 15.6669 8.83002 15.667H8.83202ZM10.199 18.409C10.1978 18.7698 10.0535 19.1154 9.79771 19.37C9.54193 19.6245 9.19561 19.7671 8.83478 19.7665C8.47394 19.7659 8.12809 19.6221 7.87315 19.3668C7.61821 19.1114 7.47504 18.7653 7.47504 18.4045C7.47504 18.0436 7.61821 17.6976 7.87315 17.4422C8.12809 17.1868 8.47394 17.0431 8.83478 17.0425C9.19561 17.0419 9.54193 17.1845 9.79771 17.439C10.0535 17.6935 10.1978 18.0392 10.199 18.4V18.409ZM18.399 15.667C17.6744 15.6678 16.9797 15.956 16.4674 16.4684C15.955 16.9807 15.6668 17.6754 15.666 18.4C15.6644 18.7589 15.7342 19.1145 15.8716 19.446C16.0089 19.7776 16.211 20.0784 16.466 20.331C16.7838 20.6487 17.175 20.8831 17.605 21.0135C18.035 21.1438 18.4905 21.1661 18.9312 21.0784C19.3719 20.9906 19.7841 20.7955 20.1314 20.5103C20.4787 20.2252 20.7502 19.8588 20.9221 19.4436C21.0939 19.0284 21.1606 18.5773 21.1164 18.1301C21.0722 17.6829 20.9183 17.2536 20.6685 16.8801C20.4187 16.5066 20.0806 16.2005 19.6842 15.9889C19.2878 15.7773 18.8454 15.6667 18.396 15.667H18.399ZM18.399 19.776C18.1286 19.776 17.8644 19.6958 17.6396 19.5456C17.4148 19.3954 17.2395 19.1819 17.1361 18.9321C17.0326 18.6823 17.0055 18.4075 17.0583 18.1423C17.111 17.8771 17.2412 17.6336 17.4324 17.4424C17.6236 17.2512 17.8672 17.121 18.1323 17.0683C18.3975 17.0155 18.6724 17.0426 18.9221 17.1461C19.1719 17.2495 19.3854 17.4247 19.5356 17.6495C19.6859 17.8743 19.766 18.1386 19.766 18.409C19.7663 18.5886 19.7311 18.7665 19.6625 18.9324C19.5939 19.0984 19.4932 19.2492 19.3662 19.3762C19.2392 19.5032 19.0884 19.6039 18.9225 19.6725C18.7565 19.7411 18.5786 19.7763 18.399 19.776V19.776Z"/>
<path d="M22.499 5.41693C22.4988 5.4749 22.49 5.5325 22.473 5.58792L20.423 13.7879C20.385 13.9338 20.2999 14.063 20.1809 14.1556C20.0619 14.2481 19.9158 14.2989 19.765 14.2999H7.46504C7.31303 14.3003 7.16518 14.2502 7.04466 14.1576C6.92414 14.0649 6.83776 13.9349 6.79904 13.7879L4.44104 4.34894L4.19904 3.36993H2.68704C2.50577 3.36993 2.33192 3.29792 2.20374 3.16974C2.07555 3.04156 2.00354 2.86771 2.00354 2.68643C2.00354 2.50516 2.07555 2.33131 2.20374 2.20312C2.33192 2.07494 2.50577 2.00293 2.68704 2.00293H4.73703C4.88905 2.00416 5.03632 2.05608 5.1555 2.15045C5.27469 2.24482 5.35898 2.37624 5.39503 2.52393L5.85603 4.35193L5.95004 4.73593H21.821C22.0008 4.73777 22.1726 4.81019 22.2995 4.93759C22.4263 5.06499 22.498 5.23716 22.499 5.41693Z"/>
<path d="M37.016 15.336C37.656 15.336 37.976 15.608 37.976 16.152C37.976 16.7173 37.656 17 37.016 17H31.608C30.9573 17 30.632 16.7173 30.632 16.152C30.632 15.608 30.9573 15.336 31.608 15.336H33.272V8.04L31.736 8.984C31.5867 9.06933 31.4533 9.112 31.336 9.112C31.112 9.112 30.92 9.016 30.76 8.824C30.6107 8.632 30.536 8.41867 30.536 8.184C30.536 7.87467 30.6747 7.63467 30.952 7.464L33.432 5.928C33.752 5.736 34.056 5.64 34.344 5.64C34.6427 5.64 34.8827 5.73067 35.064 5.912C35.2453 6.09333 35.336 6.344 35.336 6.664V15.336H37.016Z"/>

</symbol>
<symbol id="youtube-icon" viewBox="0 0 23 16">
<path d="M22.63 5.58803C22.6798 4.14732 22.3647 2.71739 21.714 1.43103C21.2738 0.904447 20.6631 0.548539 19.988 0.425032C17.1876 0.170933 14.3755 0.0667845 11.564 0.113032C8.76264 0.0640224 5.96068 0.164164 3.16998 0.413032C2.6184 0.51356 2.10798 0.772415 1.70098 1.15803C0.787983 1.99503 0.687983 3.42403 0.587983 4.63203C0.441945 6.80358 0.441945 8.98248 0.587983 11.154C0.616462 11.8338 0.717026 12.5085 0.887982 13.167C1.00941 13.6755 1.25508 14.1459 1.60298 14.536C2.01297 14.9422 2.53559 15.2157 3.10298 15.321C5.27283 15.5888 7.45917 15.6998 9.64498 15.653C13.168 15.703 16.257 15.653 19.911 15.371C20.4922 15.272 21.0294 14.9982 21.451 14.586C21.7327 14.3043 21.9432 13.9594 22.065 13.58C22.4248 12.4755 22.6015 11.3196 22.588 10.158C22.63 9.59403 22.63 6.19203 22.63 5.58803ZM9.28798 10.761V4.53103L15.246 7.66103C13.572 8.58703 11.368 9.63403 9.28798 10.761Z"/>

</symbol></svg>