<svg viewBox="0 0 24 24" xmlns="http://www.w3.org/2000/svg">
<g>
<g>
<path fill-rule="evenodd" clip-rule="evenodd" d="M16.7691 1.78101C16.9172 1.93459 17 2.13964 17 2.35301C17 2.56637 16.9172 2.77142 16.7691 2.92501L7.89912 12.045L16.7691 21.164C16.917 21.3177 16.9996 21.5227 16.9996 21.736C16.9996 21.9493 16.917 22.1543 16.7691 22.308C16.6972 22.3829 16.6108 22.4425 16.5153 22.4832C16.4198 22.5239 16.317 22.5449 16.2131 22.5449C16.1093 22.5449 16.0065 22.5239 15.9109 22.4832C15.8154 22.4425 15.7291 22.3829 15.6571 22.308L6.23112 12.617C6.08301 12.4634 6.00024 12.2584 6.00024 12.045C6.00024 11.8316 6.08301 11.6266 6.23112 11.473L15.6571 1.78101C15.729 1.70599 15.8153 1.64629 15.9109 1.60551C16.0064 1.56473 16.1092 1.5437 16.2131 1.5437C16.317 1.5437 16.4198 1.56473 16.5154 1.60551C16.6109 1.64629 16.6972 1.70599 16.7691 1.78101V1.78101Z"/>
</g>
</g>
</svg>
