<svg viewBox="0 0 24 24" xmlns="http://www.w3.org/2000/svg">
<g clip-path="url(#clip0)">
<path fill-rule="evenodd" clip-rule="evenodd" d="M22.219 16.769C22.0654 16.9171 21.8604 16.9999 21.647 16.9999C21.4336 16.9999 21.2286 16.9171 21.075 16.769L11.955 7.899L2.83599 16.769C2.68229 16.9169 2.47729 16.9995 2.26399 16.9995C2.0507 16.9995 1.8457 16.9169 1.69199 16.769C1.6171 16.6971 1.55752 16.6107 1.51682 16.5152C1.47612 16.4196 1.45513 16.3169 1.45513 16.213C1.45513 16.1091 1.47612 16.0064 1.51682 15.9108C1.55752 15.8153 1.6171 15.7289 1.69199 15.657L11.383 6.231C11.5366 6.08288 11.7416 6.00012 11.955 6.00012C12.1684 6.00012 12.3734 6.08288 12.527 6.231L22.219 15.657C22.294 15.7289 22.3537 15.8152 22.3945 15.9107C22.4353 16.0063 22.4563 16.1091 22.4563 16.213C22.4563 16.3169 22.4353 16.4197 22.3945 16.5153C22.3537 16.6108 22.294 16.6971 22.219 16.769V16.769Z"/>
</g>
<defs>
<clipPath id="clip0">
<rect/>
</clipPath>
</defs>
</svg>
