<svg viewBox="0 0 40 24" xmlns="http://www.w3.org/2000/svg">
<path fill-rule="evenodd" clip-rule="evenodd" d="M12.455 3.64398C18.397 -2.46402 33.255 8.22398 12.455 21.968C-8.34298 8.22598 6.51302 -2.46402 12.455 3.64398Z"/>
<path d="M38.016 15.336C38.656 15.336 38.976 15.608 38.976 16.152C38.976 16.7173 38.656 17 38.016 17H32.608C31.9573 17 31.632 16.7173 31.632 16.152C31.632 15.608 31.9573 15.336 32.608 15.336H34.272V8.04L32.736 8.984C32.5867 9.06933 32.4533 9.112 32.336 9.112C32.112 9.112 31.92 9.016 31.76 8.824C31.6107 8.632 31.536 8.41867 31.536 8.184C31.536 7.87467 31.6747 7.63467 31.952 7.464L34.432 5.928C34.752 5.736 35.056 5.64 35.344 5.64C35.6427 5.64 35.8827 5.73067 36.064 5.912C36.2453 6.09333 36.336 6.344 36.336 6.664V15.336H38.016Z"/>
</svg>
