<svg viewBox="0 0 22 22" xmlns="http://www.w3.org/2000/svg">
<path d="M16.839 4.06704C16.5819 4.06704 16.3305 4.14329 16.1167 4.28613C15.903 4.42898 15.7363 4.63201 15.6379 4.86956C15.5395 5.1071 15.5138 5.36849 15.564 5.62066C15.6141 5.87284 15.7379 6.10448 15.9197 6.28628C16.1016 6.46809 16.3332 6.59191 16.5854 6.64207C16.8375 6.69223 17.0989 6.66648 17.3365 6.56809C17.574 6.46969 17.777 6.30307 17.9199 6.08929C18.0627 5.8755 18.139 5.62416 18.139 5.36704C18.139 5.02226 18.002 4.6916 17.7582 4.44781C17.5144 4.20401 17.1838 4.06704 16.839 4.06704V4.06704ZM21.82 6.68705C21.7983 5.78861 21.6294 4.89981 21.32 4.05605C21.0446 3.33416 20.6161 2.68051 20.064 2.14004C19.5279 1.58518 18.8728 1.15944 18.148 0.895045C17.3064 0.576786 16.4166 0.404643 15.517 0.386045C14.37 0.321045 14.002 0.321045 11.057 0.321045C8.11198 0.321045 7.74398 0.321045 6.59598 0.386045C5.69639 0.404643 4.80659 0.576786 3.96498 0.895045C3.24153 1.1621 2.58691 1.58747 2.04898 2.14004C1.49411 2.67608 1.06838 3.33126 0.80398 4.05605C0.485721 4.89766 0.313579 5.78746 0.294981 6.68705C0.229981 7.83505 0.22998 8.20304 0.22998 11.148C0.22998 14.093 0.229981 14.461 0.294981 15.609C0.313579 16.5086 0.485721 17.3984 0.80398 18.24C1.06838 18.9648 1.49411 19.62 2.04898 20.156C2.58691 20.7086 3.24153 21.134 3.96498 21.401C4.80659 21.7193 5.69639 21.8914 6.59598 21.91C7.74398 21.975 8.11198 21.975 11.057 21.975C14.002 21.975 14.37 21.975 15.518 21.91C16.4176 21.8914 17.3074 21.7193 18.149 21.401C18.8738 21.1366 19.5289 20.7109 20.065 20.156C20.6196 19.6176 21.0484 18.9634 21.321 18.24C21.6304 17.3963 21.7993 16.5075 21.821 15.609C21.821 14.461 21.886 14.093 21.886 11.148C21.886 8.20304 21.885 7.83505 21.82 6.68705V6.68705ZM19.871 15.479C19.8632 16.1664 19.7387 16.8474 19.503 17.493C19.3301 17.9642 19.0525 18.3899 18.691 18.738C18.3398 19.0959 17.915 19.3729 17.446 19.55C16.7999 19.787 16.1181 19.9125 15.43 19.921C14.347 19.975 13.947 19.986 11.099 19.986C8.25098 19.986 7.85098 19.986 6.76798 19.921C6.05449 19.9344 5.34406 19.8244 4.66798 19.596C4.21951 19.4099 3.81411 19.1335 3.47698 18.784C3.11806 18.4361 2.84429 18.0101 2.67698 17.539C2.41273 16.8842 2.26614 16.1878 2.24398 15.482C2.24398 14.399 2.17898 13.999 2.17898 11.151C2.17898 8.30304 2.17898 7.90304 2.24398 6.82004C2.2489 6.11748 2.37719 5.42123 2.62298 4.76304C2.81348 4.30607 3.10593 3.89869 3.47798 3.57204C3.80695 3.19984 4.21349 2.90424 4.66898 2.70605C5.32998 2.46641 6.02691 2.34096 6.72998 2.33504C7.81298 2.33504 8.21298 2.27004 11.061 2.27004C13.909 2.27004 14.309 2.27004 15.392 2.33504C16.0793 2.34287 16.7603 2.4673 17.406 2.70304C17.8978 2.88565 18.3393 3.18247 18.694 3.56905C19.0488 3.90164 19.326 4.30826 19.506 4.76005C19.746 5.42075 19.8695 6.1181 19.871 6.82104C19.925 7.90404 19.936 8.30405 19.936 11.152C19.936 14 19.925 14.396 19.871 15.479V15.479ZM11.057 5.59404C9.77505 5.59903 8.53447 6.04811 7.54639 6.86485C6.55831 7.68159 5.8838 8.8155 5.63768 10.0736C5.39156 11.3317 5.58903 12.6362 6.19648 13.7651C6.80394 14.8939 7.78383 15.7774 8.96937 16.2651C10.1549 16.7528 11.4728 16.8146 12.6988 16.44C13.9248 16.0653 14.983 15.2774 15.6934 14.2103C16.4038 13.1432 16.7225 11.8629 16.5951 10.5873C16.4678 9.31169 15.9023 8.11964 14.995 7.21404C14.4774 6.69824 13.8632 6.28964 13.1874 6.01165C12.5116 5.73366 11.7877 5.59175 11.057 5.59404V5.59404ZM11.057 14.754C10.344 14.754 9.64699 14.5426 9.05415 14.1465C8.46131 13.7504 7.99925 13.1873 7.72639 12.5286C7.45354 11.8699 7.38215 11.145 7.52125 10.4457C7.66035 9.74644 8.00369 9.10409 8.50786 8.59993C9.01203 8.09576 9.65438 7.75241 10.3537 7.61331C11.053 7.47421 11.7778 7.54561 12.4366 7.81846C13.0953 8.09131 13.6583 8.55338 14.0544 9.14621C14.4506 9.73905 14.662 10.436 14.662 11.149C14.662 12.1052 14.2822 13.0221 13.6061 13.6982C12.93 14.3742 12.0131 14.754 11.057 14.754V14.754Z"/>
</svg>
