<svg viewBox="0 0 19 19" xmlns="http://www.w3.org/2000/svg">
<path fill-rule="evenodd" clip-rule="evenodd" d="M12.361 12.361C12.4709 12.251 12.6014 12.1638 12.745 12.1042C12.8886 12.0447 13.0426 12.014 13.198 12.014C13.3535 12.014 13.5074 12.0447 13.6511 12.1042C13.7947 12.1638 13.9252 12.251 14.035 12.361L18.591 16.917C18.707 17.0255 18.8 17.1562 18.8645 17.3013C18.9289 17.4464 18.9636 17.603 18.9662 17.7618C18.9689 17.9206 18.9397 18.0783 18.8802 18.2255C18.8207 18.3728 18.7321 18.5065 18.6199 18.6189C18.5076 18.7312 18.3739 18.8198 18.2267 18.8794C18.0795 18.939 17.9218 18.9683 17.763 18.9657C17.6043 18.9631 17.4476 18.9286 17.3025 18.8643C17.1573 18.7999 17.0265 18.707 16.918 18.591L12.361 14.031C12.251 13.9212 12.1638 13.7907 12.1042 13.6471C12.0447 13.5034 12.014 13.3495 12.014 13.194C12.014 13.0386 12.0447 12.8846 12.1042 12.741C12.1638 12.5974 12.251 12.4669 12.361 12.357V12.361Z"/>
<path fill-rule="evenodd" clip-rule="evenodd" d="M7.692 14.2C8.97912 14.1998 10.2373 13.8179 11.3074 13.1027C12.3775 12.3875 13.2115 11.371 13.7039 10.1818C14.1963 8.99261 14.3251 7.6841 14.0738 6.42174C13.8226 5.15938 13.2027 3.99986 12.2925 3.0898C11.3823 2.17974 10.2227 1.56001 8.96028 1.30898C7.69788 1.05794 6.38939 1.18688 5.20027 1.67949C4.01115 2.17209 2.99479 3.00624 2.27973 4.07645C1.56467 5.14667 1.183 6.40488 1.183 7.692C1.183 8.54673 1.35137 9.39308 1.67849 10.1827C2.00561 10.9724 2.48508 11.6899 3.08951 12.2942C3.69394 12.8985 4.41149 13.3779 5.20119 13.7049C5.99089 14.0319 6.83728 14.2001 7.692 14.2V14.2ZM15.384 7.692C15.384 9.21333 14.9329 10.7005 14.0877 11.9654C13.2425 13.2304 12.0411 14.2163 10.6356 14.7985C9.23008 15.3807 7.68347 15.533 6.19137 15.2362C4.69927 14.9394 3.32868 14.2068 2.25294 13.1311C1.17719 12.0553 0.444601 10.6847 0.147803 9.19263C-0.148994 7.70053 0.00333285 6.15393 0.585522 4.7484C1.16771 3.34287 2.15361 2.14154 3.41856 1.29634C4.6835 0.451128 6.17067 0 7.692 0C9.73205 0 11.6885 0.810405 13.1311 2.25293C14.5736 3.69546 15.384 5.65195 15.384 7.692V7.692Z"/>
</svg>
