<svg viewBox="0 0 39 24" xmlns="http://www.w3.org/2000/svg">
<path d="M8.83202 15.667C8.10742 15.6678 7.41274 15.956 6.90037 16.4684C6.38801 16.9807 6.09982 17.6754 6.09903 18.4C6.09735 18.7589 6.16723 19.1145 6.3046 19.446C6.44196 19.7776 6.64403 20.0784 6.89902 20.331C7.21675 20.6487 7.60792 20.8831 8.03789 21.0134C8.46785 21.1438 8.92333 21.1661 9.36398 21.0784C9.80463 20.9907 10.2169 20.7957 10.5641 20.5106C10.9114 20.2255 11.183 19.8592 11.3549 19.4441C11.5267 19.0289 11.5936 18.5778 11.5495 18.1307C11.5053 17.6836 11.3516 17.2542 11.1019 16.8807C10.8522 16.5072 10.5143 16.201 10.118 15.9893C9.72171 15.7776 9.27931 15.6669 8.83002 15.667H8.83202ZM10.199 18.409C10.1978 18.7698 10.0535 19.1154 9.79771 19.37C9.54193 19.6245 9.19561 19.7671 8.83478 19.7665C8.47394 19.7659 8.12809 19.6221 7.87315 19.3668C7.61821 19.1114 7.47504 18.7653 7.47504 18.4045C7.47504 18.0436 7.61821 17.6976 7.87315 17.4422C8.12809 17.1868 8.47394 17.0431 8.83478 17.0425C9.19561 17.0419 9.54193 17.1845 9.79771 17.439C10.0535 17.6935 10.1978 18.0392 10.199 18.4V18.409ZM18.399 15.667C17.6744 15.6678 16.9797 15.956 16.4674 16.4684C15.955 16.9807 15.6668 17.6754 15.666 18.4C15.6644 18.7589 15.7342 19.1145 15.8716 19.446C16.0089 19.7776 16.211 20.0784 16.466 20.331C16.7838 20.6487 17.175 20.8831 17.605 21.0135C18.035 21.1438 18.4905 21.1661 18.9312 21.0784C19.3719 20.9906 19.7841 20.7955 20.1314 20.5103C20.4787 20.2252 20.7502 19.8588 20.9221 19.4436C21.0939 19.0284 21.1606 18.5773 21.1164 18.1301C21.0722 17.6829 20.9183 17.2536 20.6685 16.8801C20.4187 16.5066 20.0806 16.2005 19.6842 15.9889C19.2878 15.7773 18.8454 15.6667 18.396 15.667H18.399ZM18.399 19.776C18.1286 19.776 17.8644 19.6958 17.6396 19.5456C17.4148 19.3954 17.2395 19.1819 17.1361 18.9321C17.0326 18.6823 17.0055 18.4075 17.0583 18.1423C17.111 17.8771 17.2412 17.6336 17.4324 17.4424C17.6236 17.2512 17.8672 17.121 18.1323 17.0683C18.3975 17.0155 18.6724 17.0426 18.9221 17.1461C19.1719 17.2495 19.3854 17.4247 19.5356 17.6495C19.6859 17.8743 19.766 18.1386 19.766 18.409C19.7663 18.5886 19.7311 18.7665 19.6625 18.9324C19.5939 19.0984 19.4932 19.2492 19.3662 19.3762C19.2392 19.5032 19.0884 19.6039 18.9225 19.6725C18.7565 19.7411 18.5786 19.7763 18.399 19.776V19.776Z"/>
<path d="M22.499 5.41693C22.4988 5.4749 22.49 5.5325 22.473 5.58792L20.423 13.7879C20.385 13.9338 20.2999 14.063 20.1809 14.1556C20.0619 14.2481 19.9158 14.2989 19.765 14.2999H7.46504C7.31303 14.3003 7.16518 14.2502 7.04466 14.1576C6.92414 14.0649 6.83776 13.9349 6.79904 13.7879L4.44104 4.34894L4.19904 3.36993H2.68704C2.50577 3.36993 2.33192 3.29792 2.20374 3.16974C2.07555 3.04156 2.00354 2.86771 2.00354 2.68643C2.00354 2.50516 2.07555 2.33131 2.20374 2.20312C2.33192 2.07494 2.50577 2.00293 2.68704 2.00293H4.73703C4.88905 2.00416 5.03632 2.05608 5.1555 2.15045C5.27469 2.24482 5.35898 2.37624 5.39503 2.52393L5.85603 4.35193L5.95004 4.73593H21.821C22.0008 4.73777 22.1726 4.81019 22.2995 4.93759C22.4263 5.06499 22.498 5.23716 22.499 5.41693Z"/>
<path d="M37.016 15.336C37.656 15.336 37.976 15.608 37.976 16.152C37.976 16.7173 37.656 17 37.016 17H31.608C30.9573 17 30.632 16.7173 30.632 16.152C30.632 15.608 30.9573 15.336 31.608 15.336H33.272V8.04L31.736 8.984C31.5867 9.06933 31.4533 9.112 31.336 9.112C31.112 9.112 30.92 9.016 30.76 8.824C30.6107 8.632 30.536 8.41867 30.536 8.184C30.536 7.87467 30.6747 7.63467 30.952 7.464L33.432 5.928C33.752 5.736 34.056 5.64 34.344 5.64C34.6427 5.64 34.8827 5.73067 35.064 5.912C35.2453 6.09333 35.336 6.344 35.336 6.664V15.336H37.016Z"/>
</svg>
