<svg viewBox="0 0 23 16" xmlns="http://www.w3.org/2000/svg">
<path d="M22.63 5.58803C22.6798 4.14732 22.3647 2.71739 21.714 1.43103C21.2738 0.904447 20.6631 0.548539 19.988 0.425032C17.1876 0.170933 14.3755 0.0667845 11.564 0.113032C8.76264 0.0640224 5.96068 0.164164 3.16998 0.413032C2.6184 0.51356 2.10798 0.772415 1.70098 1.15803C0.787983 1.99503 0.687983 3.42403 0.587983 4.63203C0.441945 6.80358 0.441945 8.98248 0.587983 11.154C0.616462 11.8338 0.717026 12.5085 0.887982 13.167C1.00941 13.6755 1.25508 14.1459 1.60298 14.536C2.01297 14.9422 2.53559 15.2157 3.10298 15.321C5.27283 15.5888 7.45917 15.6998 9.64498 15.653C13.168 15.703 16.257 15.653 19.911 15.371C20.4922 15.272 21.0294 14.9982 21.451 14.586C21.7327 14.3043 21.9432 13.9594 22.065 13.58C22.4248 12.4755 22.6015 11.3196 22.588 10.158C22.63 9.59403 22.63 6.19203 22.63 5.58803ZM9.28798 10.761V4.53103L15.246 7.66103C13.572 8.58703 11.368 9.63403 9.28798 10.761Z"/>
</svg>
